#N canvas 29 37 1193 590 10;
#X obj 1 135 cnv 15 1037 74 empty empty empty 20 12 0 14 -232431 -66577
0;
#X obj 283 41 cnv 15 551 34 empty empty empty 20 12 0 14 -233017 -66577
0;
#X obj 283 41 cnv 15 551 15 empty empty empty 20 12 0 14 -137314 -66577
0;
#X obj 10 180 inlet~;
#X obj 60 180 inlet;
#X obj 114 180 inlet~;
#X obj 164 180 inlet;
#X obj 218 180 inlet~;
#X obj 268 180 inlet;
#X obj 322 180 inlet~;
#X obj 372 180 inlet;
#X obj 426 180 inlet~;
#X obj 476 180 inlet;
#X obj 530 180 inlet~;
#X obj 580 180 inlet;
#X obj 634 180 inlet~;
#X obj 684 180 inlet;
#X obj 738 180 inlet~;
#X obj 788 180 inlet;
#X obj 842 180 inlet~;
#X obj 892 180 inlet;
#X obj 946 180 inlet~;
#X obj 996 180 inlet;
#X text 50 163 1;
#X text 155 164 2;
#X text 258 164 3;
#X text 362 163 4;
#X text 465 163 5;
#X text 571 163 6;
#X text 673 163 7;
#X text 778 162 8;
#X text 883 162 9;
#X text 984 163 10;
#X obj 1053 135 cnv 15 1037 74 empty empty empty 20 12 0 14 -232431
-66577 0;
#X obj 1062 180 inlet~;
#X obj 1112 180 inlet;
#X obj 1166 180 inlet~;
#X obj 1216 180 inlet;
#X obj 1270 180 inlet~;
#X obj 1320 180 inlet;
#X obj 1374 180 inlet~;
#X obj 1424 180 inlet;
#X obj 1478 180 inlet~;
#X obj 1528 180 inlet;
#X obj 1582 180 inlet~;
#X obj 1632 180 inlet;
#X obj 1686 180 inlet~;
#X obj 1736 180 inlet;
#X obj 1790 180 inlet~;
#X obj 1840 180 inlet;
#X obj 1894 180 inlet~;
#X obj 1944 180 inlet;
#X obj 1998 180 inlet~;
#X obj 2048 180 inlet;
#X text 1102 163 1;
#X text 1207 164 2;
#X text 1310 164 3;
#X text 1414 163 4;
#X text 1517 163 5;
#X text 1623 163 6;
#X text 1725 163 7;
#X text 1830 162 8;
#X text 1935 162 9;
#X text 2036 163 10;
#X obj 553 504 cnv 15 1037 74 empty empty empty 20 12 0 14 -232431
-66577 0;
#X text 602 532 1;
#X text 707 533 2;
#X text 810 533 3;
#X text 914 532 4;
#X text 1017 532 5;
#X text 1123 532 6;
#X text 1225 532 7;
#X text 1330 531 8;
#X text 1435 531 9;
#X text 1536 532 10;
#X obj 562 549 outlet~;
#X obj 612 549 outlet;
#X obj 666 549 outlet~;
#X obj 716 549 outlet;
#X obj 770 549 outlet~;
#X obj 820 549 outlet;
#X obj 874 549 outlet~;
#X obj 924 549 outlet;
#X obj 978 549 outlet~;
#X obj 1028 549 outlet;
#X obj 1082 549 outlet~;
#X obj 1132 549 outlet;
#X obj 1186 549 outlet~;
#X obj 1236 549 outlet;
#X obj 1290 549 outlet~;
#X obj 1340 549 outlet;
#X obj 1444 549 outlet;
#X obj 1498 549 outlet~;
#X obj 1548 549 outlet;
#X text 1004 55 The assumption that both osc banks recieve the same
velocity information underlies the logic of connecting only the bank
1 "inlets" to the "outlets";
#X obj 748 354 +~;
#X obj 811 354 +~;
#X obj 875 354 +~;
#X obj 938 354 +~;
#X obj 1001 354 +~;
#X obj 1064 354 +~;
#X obj 1128 354 +~;
#X obj 1191 354 +~;
#X obj 1254 354 +~;
#X obj 1317 354 +~;
#X obj 748 389 /~ 2;
#X obj 811 389 /~ 2;
#X obj 875 389 /~ 2;
#X obj 938 389 /~ 2;
#X obj 1001 389 /~ 2;
#X obj 1064 389 /~ 2;
#X obj 1128 389 /~ 2;
#X obj 1191 389 /~ 2;
#X obj 1254 389 /~ 2;
#X obj 1317 389 /~ 2;
#X obj 1394 549 outlet~;
#X text 1046 509 Output;
#X text 532 40 Combiner;
#X text 493 140 Source 1;
#X text 1545 140 Source 2;
#X connect 3 0 95 0;
#X connect 4 0 76 0;
#X connect 5 0 96 0;
#X connect 6 0 78 0;
#X connect 7 0 97 0;
#X connect 8 0 80 0;
#X connect 9 0 98 0;
#X connect 10 0 82 0;
#X connect 11 0 99 0;
#X connect 12 0 84 0;
#X connect 13 0 100 0;
#X connect 14 0 86 0;
#X connect 15 0 101 0;
#X connect 16 0 88 0;
#X connect 17 0 102 0;
#X connect 18 0 90 0;
#X connect 19 0 103 0;
#X connect 20 0 91 0;
#X connect 21 0 104 0;
#X connect 22 0 93 0;
#X connect 34 0 95 1;
#X connect 36 0 96 1;
#X connect 38 0 97 1;
#X connect 40 0 98 1;
#X connect 42 0 99 1;
#X connect 44 0 100 1;
#X connect 46 0 101 1;
#X connect 48 0 102 1;
#X connect 50 0 103 1;
#X connect 52 0 104 1;
#X connect 95 0 105 0;
#X connect 96 0 106 0;
#X connect 97 0 107 0;
#X connect 98 0 108 0;
#X connect 99 0 109 0;
#X connect 100 0 110 0;
#X connect 101 0 111 0;
#X connect 102 0 112 0;
#X connect 103 0 113 0;
#X connect 104 0 114 0;
#X connect 105 0 75 0;
#X connect 106 0 77 0;
#X connect 107 0 79 0;
#X connect 108 0 81 0;
#X connect 109 0 83 0;
#X connect 110 0 85 0;
#X connect 111 0 87 0;
#X connect 112 0 89 0;
#X connect 113 0 115 0;
#X connect 114 0 92 0;
#X coords 0 -1 1 1 553 40 1 282 38;
