#N canvas 736 41 450 300 10;
#X obj 42 102 notein_pack;
#X obj 42 201 pack f f f;
#X obj 283 41 cnv 15 73 73 empty empty empty 20 12 0 14 -233017 -66577
0;
#X obj 283 41 cnv 15 73 15 empty empty empty 20 12 0 14 -137314 -66577
0;
#X obj 117 201 pack f f f;
#X obj 42 137 spigot;
#X obj 117 137 spigot;
#X obj 312 79 tgl 15 0 empty empty empty 17 7 0 10 -220534 -1 -1 0
1;
#X obj 150 99 - 1;
#X obj 117 172 poly 10 1;
#X obj 42 172 poly 1 1;
#X obj 189 77 loadbang;
#X msg 189 99 1;
#X obj 42 235 outlet;
#X text 298 40 Control;
#X text 307 62 Mono;
#X obj 114 48 inlet;
#X text 154 47 for sequencer;
#X connect 0 0 5 0;
#X connect 0 0 6 0;
#X connect 1 0 13 0;
#X connect 4 0 13 0;
#X connect 5 0 10 0;
#X connect 6 0 9 0;
#X connect 7 0 5 1;
#X connect 7 0 8 0;
#X connect 8 0 6 1;
#X connect 9 0 4 0;
#X connect 9 1 4 1;
#X connect 9 2 4 2;
#X connect 10 0 1 0;
#X connect 10 1 1 1;
#X connect 10 2 1 2;
#X connect 11 0 12 0;
#X connect 12 0 6 1;
#X connect 16 0 5 0;
#X connect 16 0 6 0;
#X coords 0 -1 1 1 75 79 1 282 38;
