#N canvas 99 23 1124 675 10;
#X obj 383 572 dac~;
#X obj 377 61 tgl 15 0 empty empty empty 17 7 0 10 -262144 -1 -1 1
1;
#X obj 118 191 vsl 15 128 0 127 0 0 empty empty empty 0 -9 0 10 -262144
-1 -1 5800 1;
#X obj 186 339 msu~;
#X obj 651 340 msu~;
#X floatatom 820 74 5 0 0 0 - - -, f 5;
#X msg 568 47 39 -1 46 -1 51 -1 54 -1 39 -1 46 -1 51 -1 54 -1;
#X msg 578 17 39 -1 46 -1 51 -1 54 -1 58 -1 54 -1 51 -1 46 -1;
#X msg 588 -13 39 -1 46 -1 51 -1 55 -1 39 -1 46 -1 51 -1 55 -1;
#X obj 228 177 seq_var;
#X obj 555 176 seq_var;
#X text 90 171 Master Volume;
#X text 32 -61 To phase \, adjust tempos to be NEARLY the same. Recommendation:
hard pan both Modular Sonic Units while phasing.;
#X text 869 46 Minor – Low;
#X text 875 18 Minor – Hi;
#X text 885 -13 Major;
#X text 908 -38 Sus;
#X msg 611 -38 39 -1 46 -1 51 -1 56 -1 39 -1 46 -1 51 -1 56 -1;
#X connect 1 0 9 0;
#X connect 1 0 10 0;
#X connect 1 0 6 0;
#X connect 2 0 3 1;
#X connect 2 0 4 1;
#X connect 3 0 0 0;
#X connect 3 1 0 1;
#X connect 4 0 0 0;
#X connect 4 1 0 1;
#X connect 5 0 10 2;
#X connect 5 0 9 2;
#X connect 6 0 9 1;
#X connect 6 0 10 1;
#X connect 7 0 9 1;
#X connect 7 0 10 1;
#X connect 8 0 9 1;
#X connect 8 0 10 1;
#X connect 9 0 3 0;
#X connect 10 0 4 0;
#X connect 17 0 9 1;
#X connect 17 0 10 1;
