#N canvas 4 23 1276 667 10;
#X obj -54 25 inlet~;
#X text -56 5 signal;
#X obj 13 25 inlet;
#X text 11 4 vel;
#X obj 13 87 / 127;
#X obj 13 163 line~;
#X obj 13 137 pack 0 10;
#X obj 13 111 select 0;
#X obj -37 477 vline~;
#X obj -52 542 *~;
#X obj 314 -152 +;
#X obj 293 -97 pack f f f f;
#X obj 343 -131 +;
#X obj 283 -265 cnv 15 271 92 empty empty empty 20 12 0 14 -233017
-66577 0;
#X obj 283 -265 cnv 15 271 15 empty empty empty 20 12 0 14 -137314
-66577 0;
#X text 300 -248 ATK;
#X text 370 -248 DCY;
#X text 440 -248 SUS;
#X text 510 -248 REL;
#X obj 298 -230 moonlib/mknob 25 300 10 10000 1 0 empty empty empty
-2 -6 0 8 -178924 -1 -1 6966 1;
#X floatatom 298 -199 5 0 0 0 - - -, f 5;
#X obj 368 -230 moonlib/mknob 25 300 10 10000 1 0 empty empty empty
-2 -6 0 8 -178924 -1 -1 6966 1;
#X floatatom 368 -199 5 0 0 0 - - -, f 5;
#X obj 439 -230 moonlib/mknob 25 300 10 10000 1 0 empty empty empty
-2 -6 0 8 -178924 -1 -1 12967 1;
#X floatatom 439 -199 5 0 0 0 - - -, f 5;
#X obj 508 -230 moonlib/mknob 25 300 10 10000 1 0 empty empty empty
-2 -6 0 8 -178924 -1 -1 12967 1;
#X floatatom 508 -199 5 0 0 0 - - -, f 5;
#X obj 337 -328 loadbang;
#X msg 294 -303 50;
#X msg 344 -303 50;
#X msg 395 -303 200;
#X msg 444 -303 200;
#X obj 385 -151 t b;
#X msg 293 -63 1 \$1 \, 0.9 \$2 \$1 \, 0 \$4 \$3;
#X obj -37 414 spigot;
#X text 260 -63 ADSR;
#X msg 328 -35 0 \$4;
#X obj 28 414 spigot;
#X obj 91 137 t b b b;
#X msg -27 379 1;
#X msg 2 379 0;
#X obj 91 182 t b b b;
#X msg 42 378 1;
#X msg 71 378 0;
#X obj -52 511 *~;
#X text 90 119 ADSR trig;
#X text 88 164 Rel trig;
#X text 58 358 Rel;
#X text -24 359 ADSR;
#X obj 149 24 inlet~;
#X text 147 4 signal;
#X obj 216 24 inlet;
#X text 214 3 vel;
#X obj 216 86 / 127;
#X obj 216 162 line~;
#X obj 216 136 pack 0 10;
#X obj 216 110 select 0;
#X obj 166 476 vline~;
#X obj 151 541 *~;
#X obj 166 413 spigot;
#X obj 231 413 spigot;
#X obj 294 136 t b b b;
#X msg 176 378 1;
#X msg 205 378 0;
#X obj 294 181 t b b b;
#X msg 245 377 1;
#X msg 274 377 0;
#X obj 151 510 *~;
#X text 293 118 ADSR trig;
#X text 291 163 Rel trig;
#X text 261 357 Rel;
#X text 179 358 ADSR;
#X obj 358 21 inlet~;
#X text 356 1 signal;
#X obj 425 21 inlet;
#X text 423 0 vel;
#X obj 425 83 / 127;
#X obj 425 159 line~;
#X obj 425 133 pack 0 10;
#X obj 425 107 select 0;
#X obj 375 473 vline~;
#X obj 360 538 *~;
#X obj 375 410 spigot;
#X obj 440 410 spigot;
#X obj 503 133 t b b b;
#X msg 385 375 1;
#X msg 414 375 0;
#X obj 503 178 t b b b;
#X msg 454 374 1;
#X msg 483 374 0;
#X obj 360 507 *~;
#X text 502 115 ADSR trig;
#X text 500 160 Rel trig;
#X text 470 354 Rel;
#X text 388 355 ADSR;
#X text 304 -35 Rel;
#X obj 569 20 inlet~;
#X text 567 0 signal;
#X obj 636 20 inlet;
#X text 634 -1 vel;
#X obj 636 82 / 127;
#X obj 636 158 line~;
#X obj 636 132 pack 0 10;
#X obj 636 106 select 0;
#X obj 586 472 vline~;
#X obj 571 537 *~;
#X obj 586 409 spigot;
#X obj 651 409 spigot;
#X obj 714 132 t b b b;
#X msg 596 374 1;
#X msg 625 374 0;
#X obj 714 177 t b b b;
#X msg 665 373 1;
#X msg 694 373 0;
#X obj 571 506 *~;
#X text 713 114 ADSR trig;
#X text 711 159 Rel trig;
#X text 681 353 Rel;
#X text 599 354 ADSR;
#X obj 781 19 inlet~;
#X text 779 -1 signal;
#X obj 848 19 inlet;
#X text 846 -2 vel;
#X obj 848 81 / 127;
#X obj 848 157 line~;
#X obj 848 131 pack 0 10;
#X obj 848 105 select 0;
#X obj 798 471 vline~;
#X obj 783 536 *~;
#X obj 798 408 spigot;
#X obj 863 408 spigot;
#X obj 926 131 t b b b;
#X msg 808 373 1;
#X msg 837 373 0;
#X obj 926 176 t b b b;
#X msg 877 372 1;
#X msg 906 372 0;
#X obj 783 505 *~;
#X text 925 113 ADSR trig;
#X text 923 158 Rel trig;
#X text 893 352 Rel;
#X text 811 353 ADSR;
#X obj 983 18 inlet~;
#X text 981 -2 signal;
#X obj 1050 18 inlet;
#X text 1048 -3 vel;
#X obj 1050 80 / 127;
#X obj 1050 156 line~;
#X obj 1050 130 pack 0 10;
#X obj 1050 104 select 0;
#X obj 1000 470 vline~;
#X obj 985 535 *~;
#X obj 1000 407 spigot;
#X obj 1065 407 spigot;
#X obj 1128 130 t b b b;
#X msg 1010 372 1;
#X msg 1039 372 0;
#X obj 1128 175 t b b b;
#X msg 1079 371 1;
#X msg 1108 371 0;
#X obj 985 504 *~;
#X text 1127 112 ADSR trig;
#X text 1125 157 Rel trig;
#X text 1095 351 Rel;
#X text 1013 352 ADSR;
#X obj 1186 17 inlet~;
#X text 1184 -3 signal;
#X obj 1253 17 inlet;
#X text 1251 -4 vel;
#X obj 1253 79 / 127;
#X obj 1253 155 line~;
#X obj 1253 129 pack 0 10;
#X obj 1253 103 select 0;
#X obj 1203 469 vline~;
#X obj 1188 534 *~;
#X obj 1203 406 spigot;
#X obj 1268 406 spigot;
#X obj 1331 129 t b b b;
#X msg 1213 371 1;
#X msg 1242 371 0;
#X obj 1331 174 t b b b;
#X msg 1282 370 1;
#X msg 1311 370 0;
#X obj 1188 503 *~;
#X text 1330 111 ADSR trig;
#X text 1328 156 Rel trig;
#X text 1298 350 Rel;
#X text 1216 351 ADSR;
#X obj 1395 14 inlet~;
#X text 1393 -6 signal;
#X obj 1462 14 inlet;
#X text 1460 -7 vel;
#X obj 1462 76 / 127;
#X obj 1462 152 line~;
#X obj 1462 126 pack 0 10;
#X obj 1462 100 select 0;
#X obj 1412 466 vline~;
#X obj 1397 531 *~;
#X obj 1412 403 spigot;
#X obj 1477 403 spigot;
#X obj 1540 126 t b b b;
#X msg 1422 368 1;
#X msg 1451 368 0;
#X obj 1540 171 t b b b;
#X msg 1491 367 1;
#X msg 1520 367 0;
#X obj 1397 500 *~;
#X text 1539 108 ADSR trig;
#X text 1537 153 Rel trig;
#X text 1507 347 Rel;
#X text 1425 348 ADSR;
#X obj 1606 13 inlet~;
#X text 1604 -7 signal;
#X obj 1673 13 inlet;
#X text 1671 -8 vel;
#X obj 1673 75 / 127;
#X obj 1673 151 line~;
#X obj 1673 125 pack 0 10;
#X obj 1673 99 select 0;
#X obj 1623 465 vline~;
#X obj 1608 530 *~;
#X obj 1623 402 spigot;
#X obj 1688 402 spigot;
#X obj 1751 125 t b b b;
#X msg 1633 367 1;
#X msg 1662 367 0;
#X obj 1751 170 t b b b;
#X msg 1702 366 1;
#X msg 1731 366 0;
#X obj 1608 499 *~;
#X text 1750 107 ADSR trig;
#X text 1748 152 Rel trig;
#X text 1718 346 Rel;
#X text 1636 347 ADSR;
#X obj 1818 12 inlet~;
#X text 1816 -8 signal;
#X obj 1885 12 inlet;
#X text 1883 -9 vel;
#X obj 1885 74 / 127;
#X obj 1885 150 line~;
#X obj 1885 124 pack 0 10;
#X obj 1885 98 select 0;
#X obj 1835 464 vline~;
#X obj 1820 529 *~;
#X obj 1835 401 spigot;
#X obj 1900 401 spigot;
#X obj 1963 124 t b b b;
#X msg 1845 366 1;
#X msg 1874 366 0;
#X obj 1963 169 t b b b;
#X msg 1914 365 1;
#X msg 1943 365 0;
#X obj 1820 498 *~;
#X text 1962 106 ADSR trig;
#X text 1960 151 Rel trig;
#X text 1930 345 Rel;
#X text 1848 346 ADSR;
#X text 371 -266 AMP Bank Envelope;
#X obj -52 575 outlet~;
#X obj 151 572 outlet~;
#X obj 360 570 outlet~;
#X obj 571 568 outlet~;
#X obj 783 566 outlet~;
#X obj 985 567 outlet~;
#X obj 1188 567 outlet~;
#X obj 1397 565 outlet~;
#X obj 1608 563 outlet~;
#X obj 1820 562 outlet~;
#X connect 0 0 44 0;
#X connect 2 0 4 0;
#X connect 4 0 7 0;
#X connect 5 0 9 1;
#X connect 6 0 5 0;
#X connect 7 0 41 0;
#X connect 7 1 6 0;
#X connect 7 1 38 0;
#X connect 8 0 44 1;
#X connect 9 0 258 0;
#X connect 10 0 12 0;
#X connect 11 0 33 0;
#X connect 11 0 36 0;
#X connect 12 0 11 2;
#X connect 19 0 20 0;
#X connect 19 0 32 0;
#X connect 20 0 11 0;
#X connect 20 0 10 0;
#X connect 21 0 22 0;
#X connect 21 0 32 0;
#X connect 22 0 11 1;
#X connect 22 0 10 1;
#X connect 23 0 24 0;
#X connect 23 0 32 0;
#X connect 24 0 12 1;
#X connect 25 0 26 0;
#X connect 25 0 32 0;
#X connect 26 0 11 3;
#X connect 27 0 28 0;
#X connect 27 0 29 0;
#X connect 27 0 30 0;
#X connect 27 0 31 0;
#X connect 28 0 19 0;
#X connect 29 0 21 0;
#X connect 30 0 23 0;
#X connect 31 0 25 0;
#X connect 32 0 10 0;
#X connect 32 0 12 0;
#X connect 32 0 11 0;
#X connect 33 0 34 0;
#X connect 33 0 59 0;
#X connect 33 0 82 0;
#X connect 33 0 106 0;
#X connect 33 0 129 0;
#X connect 33 0 152 0;
#X connect 33 0 175 0;
#X connect 33 0 198 0;
#X connect 33 0 221 0;
#X connect 33 0 244 0;
#X connect 34 0 8 0;
#X connect 36 0 37 0;
#X connect 36 0 60 0;
#X connect 36 0 83 0;
#X connect 36 0 107 0;
#X connect 36 0 130 0;
#X connect 36 0 153 0;
#X connect 36 0 176 0;
#X connect 36 0 199 0;
#X connect 36 0 222 0;
#X connect 36 0 245 0;
#X connect 37 0 8 0;
#X connect 38 0 40 0;
#X connect 38 1 11 0;
#X connect 38 2 39 0;
#X connect 39 0 34 1;
#X connect 40 0 34 1;
#X connect 41 0 43 0;
#X connect 41 1 11 0;
#X connect 41 2 42 0;
#X connect 42 0 37 1;
#X connect 43 0 37 1;
#X connect 44 0 9 0;
#X connect 49 0 67 0;
#X connect 51 0 53 0;
#X connect 53 0 56 0;
#X connect 54 0 58 1;
#X connect 55 0 54 0;
#X connect 56 0 64 0;
#X connect 56 1 55 0;
#X connect 56 1 61 0;
#X connect 57 0 67 1;
#X connect 58 0 259 0;
#X connect 59 0 57 0;
#X connect 60 0 57 0;
#X connect 61 0 63 0;
#X connect 61 1 11 0;
#X connect 61 2 62 0;
#X connect 62 0 59 1;
#X connect 63 0 59 1;
#X connect 64 0 66 0;
#X connect 64 1 11 0;
#X connect 64 2 65 0;
#X connect 65 0 60 1;
#X connect 66 0 60 1;
#X connect 67 0 58 0;
#X connect 72 0 90 0;
#X connect 74 0 76 0;
#X connect 76 0 79 0;
#X connect 77 0 81 1;
#X connect 78 0 77 0;
#X connect 79 0 87 0;
#X connect 79 1 78 0;
#X connect 79 1 84 0;
#X connect 80 0 90 1;
#X connect 81 0 260 0;
#X connect 82 0 80 0;
#X connect 83 0 80 0;
#X connect 84 0 86 0;
#X connect 84 1 11 0;
#X connect 84 2 85 0;
#X connect 85 0 82 1;
#X connect 86 0 82 1;
#X connect 87 0 89 0;
#X connect 87 1 11 0;
#X connect 87 2 88 0;
#X connect 88 0 83 1;
#X connect 89 0 83 1;
#X connect 90 0 81 0;
#X connect 96 0 114 0;
#X connect 98 0 100 0;
#X connect 100 0 103 0;
#X connect 101 0 105 1;
#X connect 102 0 101 0;
#X connect 103 0 111 0;
#X connect 103 1 102 0;
#X connect 103 1 108 0;
#X connect 104 0 114 1;
#X connect 105 0 261 0;
#X connect 106 0 104 0;
#X connect 107 0 104 0;
#X connect 108 0 110 0;
#X connect 108 1 11 0;
#X connect 108 2 109 0;
#X connect 109 0 106 1;
#X connect 110 0 106 1;
#X connect 111 0 113 0;
#X connect 111 1 11 0;
#X connect 111 2 112 0;
#X connect 112 0 107 1;
#X connect 113 0 107 1;
#X connect 114 0 105 0;
#X connect 119 0 137 0;
#X connect 121 0 123 0;
#X connect 123 0 126 0;
#X connect 124 0 128 1;
#X connect 125 0 124 0;
#X connect 126 0 134 0;
#X connect 126 1 125 0;
#X connect 126 1 131 0;
#X connect 127 0 137 1;
#X connect 128 0 262 0;
#X connect 129 0 127 0;
#X connect 130 0 127 0;
#X connect 131 0 133 0;
#X connect 131 1 11 0;
#X connect 131 2 132 0;
#X connect 132 0 129 1;
#X connect 133 0 129 1;
#X connect 134 0 136 0;
#X connect 134 1 11 0;
#X connect 134 2 135 0;
#X connect 135 0 130 1;
#X connect 136 0 130 1;
#X connect 137 0 128 0;
#X connect 142 0 160 0;
#X connect 144 0 146 0;
#X connect 146 0 149 0;
#X connect 147 0 151 1;
#X connect 148 0 147 0;
#X connect 149 0 157 0;
#X connect 149 1 148 0;
#X connect 149 1 154 0;
#X connect 150 0 160 1;
#X connect 151 0 263 0;
#X connect 152 0 150 0;
#X connect 153 0 150 0;
#X connect 154 0 156 0;
#X connect 154 1 11 0;
#X connect 154 2 155 0;
#X connect 155 0 152 1;
#X connect 156 0 152 1;
#X connect 157 0 159 0;
#X connect 157 1 11 0;
#X connect 157 2 158 0;
#X connect 158 0 153 1;
#X connect 159 0 153 1;
#X connect 160 0 151 0;
#X connect 165 0 183 0;
#X connect 167 0 169 0;
#X connect 169 0 172 0;
#X connect 170 0 174 1;
#X connect 171 0 170 0;
#X connect 172 0 180 0;
#X connect 172 1 171 0;
#X connect 172 1 177 0;
#X connect 173 0 183 1;
#X connect 174 0 264 0;
#X connect 175 0 173 0;
#X connect 176 0 173 0;
#X connect 177 0 179 0;
#X connect 177 1 11 0;
#X connect 177 2 178 0;
#X connect 178 0 175 1;
#X connect 179 0 175 1;
#X connect 180 0 182 0;
#X connect 180 1 11 0;
#X connect 180 2 181 0;
#X connect 181 0 176 1;
#X connect 182 0 176 1;
#X connect 183 0 174 0;
#X connect 188 0 206 0;
#X connect 190 0 192 0;
#X connect 192 0 195 0;
#X connect 193 0 197 1;
#X connect 194 0 193 0;
#X connect 195 0 203 0;
#X connect 195 1 194 0;
#X connect 195 1 200 0;
#X connect 196 0 206 1;
#X connect 197 0 265 0;
#X connect 198 0 196 0;
#X connect 199 0 196 0;
#X connect 200 0 202 0;
#X connect 200 1 11 0;
#X connect 200 2 201 0;
#X connect 201 0 198 1;
#X connect 202 0 198 1;
#X connect 203 0 205 0;
#X connect 203 1 11 0;
#X connect 203 2 204 0;
#X connect 204 0 199 1;
#X connect 205 0 199 1;
#X connect 206 0 197 0;
#X connect 211 0 229 0;
#X connect 213 0 215 0;
#X connect 215 0 218 0;
#X connect 216 0 220 1;
#X connect 217 0 216 0;
#X connect 218 0 226 0;
#X connect 218 1 217 0;
#X connect 218 1 223 0;
#X connect 219 0 229 1;
#X connect 220 0 266 0;
#X connect 221 0 219 0;
#X connect 222 0 219 0;
#X connect 223 0 225 0;
#X connect 223 1 11 0;
#X connect 223 2 224 0;
#X connect 224 0 221 1;
#X connect 225 0 221 1;
#X connect 226 0 228 0;
#X connect 226 1 11 0;
#X connect 226 2 227 0;
#X connect 227 0 222 1;
#X connect 228 0 222 1;
#X connect 229 0 220 0;
#X connect 234 0 252 0;
#X connect 236 0 238 0;
#X connect 238 0 241 0;
#X connect 239 0 243 1;
#X connect 240 0 239 0;
#X connect 241 0 249 0;
#X connect 241 1 240 0;
#X connect 241 1 246 0;
#X connect 242 0 252 1;
#X connect 243 0 267 0;
#X connect 244 0 242 0;
#X connect 245 0 242 0;
#X connect 246 0 248 0;
#X connect 246 1 11 0;
#X connect 246 2 247 0;
#X connect 247 0 244 1;
#X connect 248 0 244 1;
#X connect 249 0 251 0;
#X connect 249 1 11 0;
#X connect 249 2 250 0;
#X connect 250 0 245 1;
#X connect 251 0 245 1;
#X connect 252 0 243 0;
#X coords 0 -1 1 1 273 98 1 282 -268;
