#N canvas 453 23 689 531 10;
#X obj 113 25 inlet;
#X text 111 4 vel;
#X obj 113 87 / 127;
#X obj 113 111 select 0;
#X obj 283 407 vline~;
#X obj 364 158 +;
#X obj 343 213 pack f f f f;
#X obj 393 179 +;
#X obj 283 45 cnv 15 197 92 empty empty empty 20 12 0 14 -233017 -66577
0;
#X obj 283 45 cnv 15 197 15 empty empty empty 20 12 0 14 -137314 -66577
0;
#X text 296 62 ATK;
#X text 346 62 DCY;
#X text 396 62 SUS;
#X text 446 62 REL;
#X obj 294 80 moonlib/mknob 25 300 10 10000 1 0 empty empty empty -2
-6 0 8 -178924 -1 -1 6966 1;
#X floatatom 294 111 5 0 0 0 - - -, f 5;
#X obj 344 80 moonlib/mknob 25 300 10 10000 1 0 empty empty empty -2
-6 0 8 -178924 -1 -1 6966 1;
#X floatatom 344 111 5 0 0 0 - - -, f 5;
#X obj 395 80 moonlib/mknob 25 300 10 10000 1 0 empty empty empty -2
-6 0 8 -178924 -1 -1 12967 1;
#X floatatom 395 111 5 0 0 0 - - -, f 5;
#X obj 444 80 moonlib/mknob 25 300 10 10000 1 0 empty empty empty -2
-6 0 8 -178924 -1 -1 12967 1;
#X floatatom 444 111 5 0 0 0 - - -, f 5;
#X obj 337 -18 loadbang;
#X msg 294 7 50;
#X msg 344 7 50;
#X msg 395 7 200;
#X msg 444 7 200;
#X obj 535 176 t b;
#X msg 343 247 1 \$1 \, 0.9 \$2 \$1 \, 0 \$4 \$3;
#X obj 283 374 spigot;
#X text 310 247 ADSR;
#X obj 378 374 spigot;
#X obj 201 111 t b b b;
#X msg 293 339 1;
#X msg 322 339 0;
#X obj 210 213 t b b b;
#X msg 392 338 1;
#X msg 421 338 0;
#X text 200 83 ADSR trig;
#X obj 283 440 outlet~;
#X text 342 44 Filt Envelope;
#X obj 102 182 bng 15 250 50 0 empty empty empty 17 7 0 10 -262144
-1 -1;
#X obj 148 190 bng 15 250 50 0 empty empty empty 17 7 0 10 -262144
-1 -1;
#X text 411 275 Reset;
#X text 148 233 Reset trig when vel = 0;
#X msg 378 275 0 10;
#X connect 0 0 2 0;
#X connect 2 0 3 0;
#X connect 3 0 35 0;
#X connect 3 0 41 0;
#X connect 3 1 32 0;
#X connect 3 1 42 0;
#X connect 4 0 39 0;
#X connect 5 0 7 0;
#X connect 6 0 28 0;
#X connect 6 0 45 0;
#X connect 7 0 6 2;
#X connect 14 0 15 0;
#X connect 14 0 27 0;
#X connect 15 0 6 0;
#X connect 15 0 5 0;
#X connect 16 0 17 0;
#X connect 16 0 27 0;
#X connect 17 0 6 1;
#X connect 17 0 5 1;
#X connect 18 0 19 0;
#X connect 18 0 27 0;
#X connect 19 0 7 1;
#X connect 20 0 21 0;
#X connect 20 0 27 0;
#X connect 21 0 6 3;
#X connect 22 0 23 0;
#X connect 22 0 24 0;
#X connect 22 0 25 0;
#X connect 22 0 26 0;
#X connect 23 0 14 0;
#X connect 24 0 16 0;
#X connect 25 0 18 0;
#X connect 26 0 20 0;
#X connect 27 0 5 0;
#X connect 27 0 7 0;
#X connect 27 0 6 0;
#X connect 28 0 29 0;
#X connect 29 0 4 0;
#X connect 31 0 4 0;
#X connect 32 0 34 0;
#X connect 32 1 6 0;
#X connect 32 2 33 0;
#X connect 33 0 29 1;
#X connect 34 0 29 1;
#X connect 35 0 37 0;
#X connect 35 1 6 0;
#X connect 35 2 36 0;
#X connect 36 0 31 1;
#X connect 37 0 31 1;
#X connect 45 0 31 0;
#X coords 0 -1 1 1 199 98 1 282 42;
