#N canvas 17 23 1263 727 10;
#X obj 379 40 cnv 15 285 164 empty empty empty 20 12 0 14 -233017 -66577
0;
#X obj 463 79 moonlib/mknob 30 300 20 20000 1 0 empty empty empty -2
-6 0 8 -191407 -1 -1 3222 1;
#X floatatom 463 114 6 0 0 0 - - -, f 6;
#X obj 421 153 moonlib/mknob 25 100 0.1 10 1 0 empty empty empty -2
-6 0 8 -191407 -1 -1 4950 1;
#X floatatom 421 182 5 0 0 0 - - -, f 5;
#X obj 517 153 moonlib/mknob 25 400 0 10000 0 0 empty empty empty -2
-6 0 8 -191407 -1 -1 2300 1;
#X floatatom 517 182 6 0 0 0 - - -, f 6;
#X obj 596 99 vradio 15 0 0 3 empty empty empty 0 -8 0 10 -237178 -1
-1 1;
#X obj 379 40 cnv 15 285 15 empty empty empty 20 12 0 14 -137314 -66577
0;
#X text 461 63 Cutoff;
#X text 613 113 LoP;
#X text 613 128 HiP;
#X text 613 98 BP;
#X text 420 137 Res;
#X text 515 137 EG Amt;
#X obj -399 343 inlet~;
#X text -391 325 env;
#X obj -515 345 inlet~;
#X text -516 325 signal;
#X obj -515 501 vcf~ 300;
#X obj -444 501 lop~ 300;
#X obj -371 501 hip~ 300;
#X obj -515 568 *~ 1;
#X obj -444 568 *~ 0;
#X obj -371 568 *~ 0;
#X obj 492 222 select 0 1 2;
#X obj 470 -55 loadbang;
#X msg 470 -27 1;
#X msg 492 251 1 0 0;
#X obj 492 279 unpack f f f;
#X msg 534 251 0 1 0;
#X msg 576 251 0 0 1;
#X obj -444 612 outlet~;
#X obj -399 404 +~;
#X obj -399 376 *~;
#X msg 433 -28 300;
#X msg 500 -27 0;
#X text 1622 196 LFO;
#X obj -399 432 +~;
#X obj 1617 213 inlet~;
#X obj -399 466 unsig~ 9;
#X obj 396 269 line~;
#X msg 396 240 \$1 50;
#X obj -274 345 inlet~;
#X text -275 325 signal;
#X obj -274 501 vcf~ 300;
#X obj -203 501 lop~ 300;
#X obj -130 501 hip~ 300;
#X obj -274 568 *~ 1;
#X obj -203 568 *~ 0;
#X obj -130 568 *~ 0;
#X obj -203 612 outlet~;
#X obj -158 404 +~;
#X obj -158 376 *~;
#X obj -158 432 +~;
#X obj -158 466 unsig~ 9;
#X obj -64 345 inlet~;
#X text -65 325 signal;
#X obj -64 501 vcf~ 300;
#X obj 7 501 lop~ 300;
#X obj 80 501 hip~ 300;
#X obj -64 568 *~ 1;
#X obj 7 568 *~ 0;
#X obj 80 568 *~ 0;
#X obj 7 612 outlet~;
#X obj 52 404 +~;
#X obj 52 376 *~;
#X obj 52 432 +~;
#X obj 52 466 unsig~ 9;
#X obj 153 346 inlet~;
#X text 152 326 signal;
#X obj 153 502 vcf~ 300;
#X obj 224 502 lop~ 300;
#X obj 297 502 hip~ 300;
#X obj 153 569 *~ 1;
#X obj 224 569 *~ 0;
#X obj 297 569 *~ 0;
#X obj 224 613 outlet~;
#X obj 269 405 +~;
#X obj 269 377 *~;
#X obj 269 433 +~;
#X obj 269 467 unsig~ 9;
#X obj 373 345 inlet~;
#X text 372 325 signal;
#X obj 373 501 vcf~ 300;
#X obj 444 501 lop~ 300;
#X obj 517 501 hip~ 300;
#X obj 373 568 *~ 1;
#X obj 444 568 *~ 0;
#X obj 517 568 *~ 0;
#X obj 444 612 outlet~;
#X obj 489 404 +~;
#X obj 489 376 *~;
#X obj 489 432 +~;
#X obj 489 466 unsig~ 9;
#X obj 591 345 inlet~;
#X text 590 325 signal;
#X obj 591 501 vcf~ 300;
#X obj 662 501 lop~ 300;
#X obj 735 501 hip~ 300;
#X obj 591 568 *~ 1;
#X obj 662 568 *~ 0;
#X obj 735 568 *~ 0;
#X obj 662 612 outlet~;
#X obj 707 404 +~;
#X obj 707 376 *~;
#X obj 707 432 +~;
#X obj 707 466 unsig~ 9;
#X obj 807 345 inlet~;
#X text 806 325 signal;
#X obj 807 501 vcf~ 300;
#X obj 878 501 lop~ 300;
#X obj 951 501 hip~ 300;
#X obj 807 568 *~ 1;
#X obj 878 568 *~ 0;
#X obj 951 568 *~ 0;
#X obj 878 612 outlet~;
#X obj 923 404 +~;
#X obj 923 376 *~;
#X obj 923 432 +~;
#X obj 923 466 unsig~ 9;
#X obj 1015 345 inlet~;
#X text 1014 325 signal;
#X obj 1015 501 vcf~ 300;
#X obj 1086 501 lop~ 300;
#X obj 1159 501 hip~ 300;
#X obj 1015 568 *~ 1;
#X obj 1086 568 *~ 0;
#X obj 1159 568 *~ 0;
#X obj 1086 612 outlet~;
#X obj 1131 404 +~;
#X obj 1131 376 *~;
#X obj 1131 432 +~;
#X obj 1131 466 unsig~ 9;
#X obj 1229 345 inlet~;
#X text 1228 325 signal;
#X obj 1229 501 vcf~ 300;
#X obj 1300 501 lop~ 300;
#X obj 1373 501 hip~ 300;
#X obj 1229 568 *~ 1;
#X obj 1300 568 *~ 0;
#X obj 1373 568 *~ 0;
#X obj 1300 612 outlet~;
#X obj 1345 404 +~;
#X obj 1345 376 *~;
#X obj 1345 432 +~;
#X obj 1345 466 unsig~ 9;
#X obj 1439 345 inlet~;
#X text 1438 325 signal;
#X obj 1439 501 vcf~ 300;
#X obj 1510 501 lop~ 300;
#X obj 1583 501 hip~ 300;
#X obj 1439 568 *~ 1;
#X obj 1510 568 *~ 0;
#X obj 1583 568 *~ 0;
#X obj 1510 612 outlet~;
#X obj 1555 404 +~;
#X obj 1555 376 *~;
#X obj 1555 432 +~;
#X obj 1555 466 unsig~ 9;
#X text 489 39 Filter Bank;
#X obj -158 345 inlet~;
#X text -150 327 env;
#X obj 52 345 inlet~;
#X text 60 327 env;
#X obj 269 346 inlet~;
#X text 277 328 env;
#X obj 489 349 inlet~;
#X text 497 331 env;
#X obj 707 347 inlet~;
#X text 715 329 env;
#X obj 923 350 inlet~;
#X text 931 332 env;
#X obj 1131 348 inlet~;
#X text 1139 330 env;
#X obj 1345 350 inlet~;
#X text 1353 332 env;
#X obj 1555 350 inlet~;
#X text 1563 332 env;
#X obj 1517 173 loadbang;
#X msg 1517 209 0;
#X connect 1 0 2 0;
#X connect 2 0 42 0;
#X connect 3 0 4 0;
#X connect 4 0 19 2;
#X connect 4 0 45 2;
#X connect 4 0 58 2;
#X connect 4 0 71 2;
#X connect 4 0 84 2;
#X connect 4 0 97 2;
#X connect 4 0 110 2;
#X connect 4 0 123 2;
#X connect 4 0 136 2;
#X connect 4 0 149 2;
#X connect 5 0 6 0;
#X connect 6 0 53 1;
#X connect 6 0 66 1;
#X connect 6 0 79 1;
#X connect 6 0 92 1;
#X connect 6 0 105 1;
#X connect 6 0 118 1;
#X connect 6 0 131 1;
#X connect 6 0 144 1;
#X connect 6 0 157 1;
#X connect 6 0 34 1;
#X connect 7 0 25 0;
#X connect 15 0 34 0;
#X connect 17 0 19 0;
#X connect 17 0 20 0;
#X connect 17 0 21 0;
#X connect 19 0 22 0;
#X connect 20 0 23 0;
#X connect 21 0 24 0;
#X connect 22 0 32 0;
#X connect 23 0 32 0;
#X connect 24 0 32 0;
#X connect 25 0 28 0;
#X connect 25 1 30 0;
#X connect 25 2 31 0;
#X connect 26 0 27 0;
#X connect 26 0 35 0;
#X connect 26 0 36 0;
#X connect 27 0 7 0;
#X connect 27 0 3 0;
#X connect 28 0 29 0;
#X connect 29 0 22 1;
#X connect 29 0 48 1;
#X connect 29 0 61 1;
#X connect 29 0 74 1;
#X connect 29 0 87 1;
#X connect 29 0 100 1;
#X connect 29 0 113 1;
#X connect 29 0 126 1;
#X connect 29 0 139 1;
#X connect 29 0 152 1;
#X connect 29 1 23 1;
#X connect 29 1 49 1;
#X connect 29 1 62 1;
#X connect 29 1 75 1;
#X connect 29 1 88 1;
#X connect 29 1 101 1;
#X connect 29 1 114 1;
#X connect 29 1 127 1;
#X connect 29 1 140 1;
#X connect 29 1 153 1;
#X connect 29 2 24 1;
#X connect 29 2 50 1;
#X connect 29 2 63 1;
#X connect 29 2 76 1;
#X connect 29 2 89 1;
#X connect 29 2 102 1;
#X connect 29 2 115 1;
#X connect 29 2 128 1;
#X connect 29 2 141 1;
#X connect 29 2 154 1;
#X connect 30 0 29 0;
#X connect 31 0 29 0;
#X connect 33 0 38 0;
#X connect 34 0 33 0;
#X connect 35 0 1 0;
#X connect 36 0 5 0;
#X connect 38 0 19 1;
#X connect 38 0 40 0;
#X connect 39 0 38 1;
#X connect 39 0 54 1;
#X connect 39 0 67 1;
#X connect 39 0 80 1;
#X connect 39 0 93 1;
#X connect 39 0 106 1;
#X connect 39 0 119 1;
#X connect 39 0 132 1;
#X connect 39 0 145 1;
#X connect 39 0 158 1;
#X connect 40 0 20 1;
#X connect 40 0 21 1;
#X connect 41 0 33 1;
#X connect 41 0 52 1;
#X connect 41 0 65 1;
#X connect 41 0 78 1;
#X connect 41 0 91 1;
#X connect 41 0 104 1;
#X connect 41 0 117 1;
#X connect 41 0 130 1;
#X connect 41 0 143 1;
#X connect 41 0 156 1;
#X connect 42 0 41 0;
#X connect 43 0 45 0;
#X connect 43 0 46 0;
#X connect 43 0 47 0;
#X connect 45 0 48 0;
#X connect 46 0 49 0;
#X connect 47 0 50 0;
#X connect 48 0 51 0;
#X connect 49 0 51 0;
#X connect 50 0 51 0;
#X connect 52 0 54 0;
#X connect 53 0 52 0;
#X connect 54 0 45 1;
#X connect 54 0 55 0;
#X connect 55 0 46 1;
#X connect 55 0 47 1;
#X connect 56 0 58 0;
#X connect 56 0 59 0;
#X connect 56 0 60 0;
#X connect 58 0 61 0;
#X connect 59 0 62 0;
#X connect 60 0 63 0;
#X connect 61 0 64 0;
#X connect 62 0 64 0;
#X connect 63 0 64 0;
#X connect 65 0 67 0;
#X connect 66 0 65 0;
#X connect 67 0 58 1;
#X connect 67 0 68 0;
#X connect 68 0 59 1;
#X connect 68 0 60 1;
#X connect 69 0 71 0;
#X connect 69 0 72 0;
#X connect 69 0 73 0;
#X connect 71 0 74 0;
#X connect 72 0 75 0;
#X connect 73 0 76 0;
#X connect 74 0 77 0;
#X connect 75 0 77 0;
#X connect 76 0 77 0;
#X connect 78 0 80 0;
#X connect 79 0 78 0;
#X connect 80 0 71 1;
#X connect 80 0 81 0;
#X connect 81 0 72 1;
#X connect 81 0 73 1;
#X connect 82 0 84 0;
#X connect 82 0 85 0;
#X connect 82 0 86 0;
#X connect 84 0 87 0;
#X connect 85 0 88 0;
#X connect 86 0 89 0;
#X connect 87 0 90 0;
#X connect 88 0 90 0;
#X connect 89 0 90 0;
#X connect 91 0 93 0;
#X connect 92 0 91 0;
#X connect 93 0 84 1;
#X connect 93 0 94 0;
#X connect 94 0 85 1;
#X connect 94 0 86 1;
#X connect 95 0 97 0;
#X connect 95 0 98 0;
#X connect 95 0 99 0;
#X connect 97 0 100 0;
#X connect 98 0 101 0;
#X connect 99 0 102 0;
#X connect 100 0 103 0;
#X connect 101 0 103 0;
#X connect 102 0 103 0;
#X connect 104 0 106 0;
#X connect 105 0 104 0;
#X connect 106 0 97 1;
#X connect 106 0 107 0;
#X connect 107 0 98 1;
#X connect 107 0 99 1;
#X connect 108 0 110 0;
#X connect 108 0 111 0;
#X connect 108 0 112 0;
#X connect 110 0 113 0;
#X connect 111 0 114 0;
#X connect 112 0 115 0;
#X connect 113 0 116 0;
#X connect 114 0 116 0;
#X connect 115 0 116 0;
#X connect 117 0 119 0;
#X connect 118 0 117 0;
#X connect 119 0 110 1;
#X connect 119 0 120 0;
#X connect 120 0 111 1;
#X connect 120 0 112 1;
#X connect 121 0 123 0;
#X connect 121 0 124 0;
#X connect 121 0 125 0;
#X connect 123 0 126 0;
#X connect 124 0 127 0;
#X connect 125 0 128 0;
#X connect 126 0 129 0;
#X connect 127 0 129 0;
#X connect 128 0 129 0;
#X connect 130 0 132 0;
#X connect 131 0 130 0;
#X connect 132 0 123 1;
#X connect 132 0 133 0;
#X connect 133 0 124 1;
#X connect 133 0 125 1;
#X connect 134 0 136 0;
#X connect 134 0 137 0;
#X connect 134 0 138 0;
#X connect 136 0 139 0;
#X connect 137 0 140 0;
#X connect 138 0 141 0;
#X connect 139 0 142 0;
#X connect 140 0 142 0;
#X connect 141 0 142 0;
#X connect 143 0 145 0;
#X connect 144 0 143 0;
#X connect 145 0 136 1;
#X connect 145 0 146 0;
#X connect 146 0 137 1;
#X connect 146 0 138 1;
#X connect 147 0 149 0;
#X connect 147 0 150 0;
#X connect 147 0 151 0;
#X connect 149 0 152 0;
#X connect 150 0 153 0;
#X connect 151 0 154 0;
#X connect 152 0 155 0;
#X connect 153 0 155 0;
#X connect 154 0 155 0;
#X connect 156 0 158 0;
#X connect 157 0 156 0;
#X connect 158 0 149 1;
#X connect 158 0 159 0;
#X connect 159 0 150 1;
#X connect 159 0 151 1;
#X connect 161 0 53 0;
#X connect 163 0 66 0;
#X connect 165 0 79 0;
#X connect 167 0 92 0;
#X connect 169 0 105 0;
#X connect 171 0 118 0;
#X connect 173 0 131 0;
#X connect 175 0 144 0;
#X connect 177 0 157 0;
#X connect 179 0 180 0;
#X connect 180 0 38 1;
#X connect 180 0 54 1;
#X connect 180 0 67 1;
#X connect 180 0 80 1;
#X connect 180 0 93 1;
#X connect 180 0 106 1;
#X connect 180 0 119 1;
#X connect 180 0 132 1;
#X connect 180 0 145 1;
#X connect 180 0 158 1;
#X coords 0 -1 1 1 287 170 1 378 37;
