#N canvas 194 30 982 550 10;
#X obj 101 103 cnv 15 325 131 empty empty empty 20 12 0 14 -191407
-66577 0;
#X obj -107 363 cnv 15 332 150 empty empty empty 20 12 0 14 -232576
-66577 0;
#X obj 103 105 cnv 15 321 127 empty empty empty 20 12 0 14 -228856
-66577 0;
#X obj 105 125 cnv 15 144 60 empty empty empty 20 12 0 14 -262130 -66577
0;
#X obj 105 188 cnv 15 144 42 empty empty empty 20 12 0 14 -261234 -66577
0;
#X obj 250 363 cnv 15 260 150 empty empty empty 20 12 0 14 -261234
-66577 0;
#X obj 46 470 osc_select~;
#X obj 257 491 vline~;
#X obj 298 374 +;
#X obj 257 419 pack f f f f;
#X obj 327 395 +;
#X obj 399 138 bng 15 250 50 0 empty empty empty 17 7 0 10 -191407
-1 -1;
#X obj 447 369 pack 0 50;
#X obj 447 395 line~;
#X floatatom 348 144 5 0 0 0 - - -, f 5;
#X obj 457 -82 loadbang;
#X msg 457 56 200;
#X text 112 189 Vol;
#X obj 113 207 hsl 128 15 0 1 0 0 empty empty empty -2 -8 0 10 -223915
-1 -1 10900 1;
#X text 371 417 ADSR Gen;
#X text 476 -212 Period (ms);
#X floatatom 111 163 5 0 0 0 - - -, f 5;
#X floatatom 156 163 5 1 4 0 - - -, f 5;
#X floatatom 200 163 5 0 0 0 - - -, f 5;
#X obj 14 414 *~;
#X obj 46 441 +~;
#X obj -99 385 osc_select~;
#X obj 252 125 cnv 15 86 60 empty empty empty 20 12 0 14 -204786 -66577
0;
#X floatatom 258 163 5 0 0 0 - - -, f 5;
#X floatatom 299 163 5 1 5 0 - - -, f 5;
#X text 256 144 Freq;
#X obj 240 515 cnv 15 337 60 empty empty empty 20 12 0 14 -233017 -66577
0;
#X text -74 453 OSC Gen;
#X obj 311 521 *~;
#X obj 450 522 *~;
#X text 244 531 Audio Out;
#X obj 496 551 outlet~;
#X obj 490 -192 inlet;
#X obj -72 -134 inlet;
#X text 110 144 Freq;
#X text 150 144 OscType;
#X text 198 144 ModRange;
#X obj 105 125 cnv 15 144 15 empty empty empty 20 12 0 14 -257707 -66577
0;
#X text 141 124 FM Control;
#X obj 252 125 cnv 15 86 15 empty empty empty 20 12 0 14 -175787 -66577
0;
#X obj 103 105 cnv 15 146 19 empty empty empty 20 12 0 14 -99865 -66577
0;
#X obj 104 105 cnv 15 144 18 empty empty empty 20 12 0 14 -228856 -66577
0;
#X text 119 105 MODULAR SONIC UNIT;
#X text 272 123 Carrier;
#X obj 252 188 cnv 15 170 42 empty empty empty 20 12 0 14 -261682 -66577
0;
#X floatatom 257 206 5 0 1 0 - - -, f 5;
#X floatatom 299 206 5 0 1 0 - - -, f 5;
#X floatatom 342 206 5 0 1 0 - - -, f 5;
#X floatatom 384 206 5 0 1 0 - - -, f 5;
#X text 255 189 ATK;
#X text 298 189 DCY;
#X text 340 189 SUS;
#X text 382 189 REL;
#X text 28 156 Osc Type \; 1 -> Sin \; 2 -> Tri \; 3 -> Sq \; 4 ->
Saw;
#X obj 251 105 cnv 15 87 19 empty empty empty 20 12 0 14 -99865 -66577
0;
#X obj 252 105 cnv 15 86 18 empty empty empty 20 12 0 14 -228856 -66577
0;
#X text 258 105 Trigger Ctrl;
#X text 428 206 (ADSR units: fractional period dur);
#X text 346 128 Period;
#X obj 498 522 *~;
#X obj 767 68 cnv 15 200 260 empty empty empty 20 12 0 14 -261234 -66577
0;
#X text 855 103 Velocity Control;
#X msg 811 81 1;
#X floatatom 786 139 5 0 0 0 - - -, f 5;
#X obj 770 81 / 127;
#X obj 771 206 bng 15 250 50 0 empty empty empty 17 7 0 10 -262144
-1 -1;
#X text 825 167 nonzero = scales output;
#X obj -72 -108 unpack f f;
#X obj -15 -77 select 0;
#X msg 647 176 0.4;
#X msg 677 176 0.1;
#X msg 707 176 0.1;
#X msg 737 176 0.4;
#X msg 328 -43 220;
#X msg 362 -43 1;
#X msg 156 15 1;
#X obj 771 277 f;
#X obj 724 -81 cnv 15 130 130 empty empty empty 20 12 0 14 -233017
-66577 0;
#X obj 348 168 tgl 15 0 empty empty empty 17 7 0 10 -191407 -1 -1 0
1;
#X obj 750 28 spigot;
#X obj 729 2 metro;
#X obj 828 -23 - 1;
#X obj 802 28 spigot;
#X text 727 -82 Trigger Mode Control;
#X msg 755 -23 stop;
#X text 851 27 single out;
#X text 696 28 loop out;
#X msg 802 -55 bang;
#X obj 686 -37 bng 15 250 50 0 empty empty empty 17 7 0 10 -262144
-1 -1;
#X msg 548 -64 0;
#X obj 396 48 metro 50;
#X msg 536 244 1;
#X msg 507 244 0;
#X text -113 -154 zero velocity -> trig Rel;
#X obj 795 390 line~;
#X obj 257 320 expr $f1*$f2;
#X obj 299 340 expr $f1*$f2;
#X obj 342 320 expr $f1*$f2;
#X obj 384 340 expr $f1*$f2;
#X obj 795 364 pack 0 10;
#X msg 257 464 1 \$1 \, 0.9 \$2 \$1 \, 0 \$4 \$3;
#X msg 771 304 0 \$1;
#X obj 786 185 select 0;
#X obj 10 -127 inlet;
#X obj 10 -103 / 127;
#X obj 96 -222 cnv 15 100 60 empty empty empty 20 12 0 14 -233017 -66577
0;
#X obj 98 -204 inlet;
#X text 122 -221 FM Input;
#X text -4 -142 Volume Input;
#X obj 125 -160 moses 5;
#X obj 125 -137 moses 1;
#X obj 236 -222 cnv 15 200 60 empty empty empty 20 12 0 14 -233017
-66577 0;
#X obj 268 -207 inlet;
#X text 262 -221 ADSR Input;
#X obj 248 -145 moses 0;
#X obj 298 -145 moses 0;
#X obj 348 -145 moses 0;
#X obj 210 -155 inlet;
#X obj 257 440 spigot;
#X obj 98 -184 unpack f f f;
#X obj 275 -185 unpack f f f f;
#X text 205 -170 OscType;
#X text 366 168 Loop Mode;
#X text 293 144 OscType;
#X obj 405 -145 moses 0;
#X obj 602 401 equal_power_pan~;
#X obj 348 117 hsl 70 10 0 1 0 0 empty empty empty -2 -8 0 10 -191407
-1 -1 3450 1;
#X obj -50 231 loadbang;
#X msg -34 268 0.5;
#X obj 618 553 outlet~;
#X text 372 102 Pan;
#X obj 35 -202 inlet;
#X text 26 -222 Pan;
#X msg 471 -14 0.5;
#X connect 6 0 33 0;
#X connect 7 0 33 1;
#X connect 8 0 10 0;
#X connect 9 0 123 0;
#X connect 10 0 9 2;
#X connect 11 0 96 0;
#X connect 12 0 13 0;
#X connect 13 0 34 1;
#X connect 14 0 85 1;
#X connect 14 0 100 1;
#X connect 14 0 101 1;
#X connect 14 0 102 1;
#X connect 14 0 103 1;
#X connect 15 0 16 0;
#X connect 15 0 74 0;
#X connect 15 0 75 0;
#X connect 15 0 76 0;
#X connect 15 0 77 0;
#X connect 15 0 67 0;
#X connect 15 0 78 0;
#X connect 15 0 79 0;
#X connect 15 0 80 0;
#X connect 15 0 94 0;
#X connect 15 0 95 0;
#X connect 15 0 138 0;
#X connect 16 0 14 0;
#X connect 18 0 12 0;
#X connect 21 0 26 0;
#X connect 22 0 26 1;
#X connect 23 0 24 1;
#X connect 24 0 25 1;
#X connect 25 0 6 0;
#X connect 26 0 24 0;
#X connect 28 0 25 0;
#X connect 29 0 6 1;
#X connect 33 0 34 0;
#X connect 34 0 64 0;
#X connect 37 0 14 0;
#X connect 38 0 72 0;
#X connect 50 0 100 0;
#X connect 51 0 101 0;
#X connect 52 0 102 0;
#X connect 53 0 103 0;
#X connect 64 0 130 0;
#X connect 67 0 68 0;
#X connect 68 0 107 0;
#X connect 69 0 68 0;
#X connect 70 0 89 0;
#X connect 70 0 81 0;
#X connect 72 0 28 0;
#X connect 72 1 73 0;
#X connect 72 1 69 0;
#X connect 73 0 70 0;
#X connect 73 1 93 0;
#X connect 74 0 50 0;
#X connect 75 0 51 0;
#X connect 76 0 52 0;
#X connect 77 0 53 0;
#X connect 78 0 28 0;
#X connect 79 0 29 0;
#X connect 80 0 22 0;
#X connect 81 0 106 0;
#X connect 83 0 86 0;
#X connect 83 0 89 0;
#X connect 83 0 84 1;
#X connect 84 0 11 0;
#X connect 85 0 84 0;
#X connect 86 0 87 1;
#X connect 87 0 11 0;
#X connect 89 0 85 0;
#X connect 92 0 87 0;
#X connect 92 0 85 0;
#X connect 93 0 92 0;
#X connect 94 0 86 0;
#X connect 95 0 14 0;
#X connect 95 0 50 0;
#X connect 95 0 51 0;
#X connect 95 0 52 0;
#X connect 95 0 53 0;
#X connect 95 0 97 0;
#X connect 96 0 123 1;
#X connect 97 0 123 1;
#X connect 99 0 64 1;
#X connect 100 0 8 0;
#X connect 100 0 9 0;
#X connect 101 0 8 1;
#X connect 101 0 9 1;
#X connect 102 0 10 1;
#X connect 103 0 81 1;
#X connect 103 0 9 3;
#X connect 104 0 99 0;
#X connect 105 0 7 0;
#X connect 106 0 7 0;
#X connect 107 1 104 0;
#X connect 108 0 109 0;
#X connect 109 0 18 0;
#X connect 111 0 124 0;
#X connect 114 0 115 0;
#X connect 115 1 22 0;
#X connect 117 0 125 0;
#X connect 119 1 50 0;
#X connect 120 1 51 0;
#X connect 121 1 52 0;
#X connect 122 0 29 0;
#X connect 123 0 105 0;
#X connect 124 0 21 0;
#X connect 124 1 114 0;
#X connect 124 2 23 0;
#X connect 125 0 119 0;
#X connect 125 1 120 0;
#X connect 125 2 121 0;
#X connect 125 3 129 0;
#X connect 129 1 53 0;
#X connect 130 0 36 0;
#X connect 130 1 134 0;
#X connect 131 0 130 1;
#X connect 132 0 133 0;
#X connect 133 0 131 0;
#X connect 136 0 131 0;
#X connect 138 0 131 0;
#X coords 0 -1 1 1 327 137 1 100 100;
