#N canvas 17 23 1263 727 10;
#X obj 129 63 cnv 15 271 150 empty empty empty 20 12 0 14 -233017 -66577
0;
#X obj 129 63 cnv 15 271 15 empty empty empty 20 12 0 14 -137314 -66577
0;
#X obj 179 2 loadbang;
#X msg 179 36 0.5;
#X obj -330 508 osc_select~;
#X floatatom 453 216 5 0 0 0 - - -, f 5;
#X obj 325 106 vradio 15 0 0 5 empty empty empty 0 -8 0 10 -237178
-1 -1 0;
#X text 341 104 Sin;
#X text 341 119 Tri;
#X text 341 135 Sq;
#X text 341 150 Saw;
#X text 341 165 Noise;
#X obj 173 117 vsl 10 60 0 1 0 0 empty empty empty 0 -9 0 10 -187246
-1 -1 5900 1;
#X text 167 101 Mix;
#X floatatom 246 133 5 0.25 4 0 - - -, f 5;
#X text 245 116 Tune;
#X msg 147 36 1;
#X obj -330 707 outlet~;
#X obj -330 214 inlet;
#X obj -330 246 route 1 2 3 4 5 6 7 8 9 10;
#X obj -330 414 * 1;
#X obj 150 236 pack 0 50;
#X obj 150 271 line~;
#X obj -330 652 *~;
#X text -61 172 Pitch LFO;
#X text 3 172 Amp LFO;
#X obj 67 191 inlet;
#X text 60 172 Pitch Env;
#X obj -330 373 unpack f f;
#X text -287 213 Recieves voice # \, freq \, vel tuples;
#X obj -330 607 *~;
#X obj -315 544 loadbang;
#X msg -315 572 1;
#X text -329 724 signal;
#X obj 6 191 inlet~;
#X obj -58 191 inlet~;
#X obj -330 453 +~ 0;
#X obj -330 479 +~;
#X obj -201 508 osc_select~;
#X obj -201 707 outlet~;
#X obj -201 414 * 1;
#X obj -201 652 *~;
#X obj -201 373 unpack f f;
#X obj -201 607 *~;
#X obj -186 544 loadbang;
#X msg -186 572 1;
#X text -200 724 signal;
#X obj -201 453 +~ 0;
#X obj -201 479 +~;
#X obj -73 508 osc_select~;
#X obj -73 707 outlet~;
#X obj -73 414 * 1;
#X obj -73 652 *~;
#X obj -73 373 unpack f f;
#X obj -73 607 *~;
#X obj -58 544 loadbang;
#X msg -58 572 1;
#X text -72 724 signal;
#X obj -73 453 +~ 0;
#X obj -73 479 +~;
#X obj 54 508 osc_select~;
#X obj 54 707 outlet~;
#X obj 54 414 * 1;
#X obj 54 652 *~;
#X obj 54 373 unpack f f;
#X obj 54 607 *~;
#X obj 69 544 loadbang;
#X msg 69 572 1;
#X text 55 724 signal;
#X obj 54 453 +~ 0;
#X obj 54 479 +~;
#X obj 181 508 osc_select~;
#X obj 181 707 outlet~;
#X obj 181 414 * 1;
#X obj 181 652 *~;
#X obj 181 373 unpack f f;
#X obj 181 607 *~;
#X obj 196 544 loadbang;
#X msg 196 572 1;
#X text 182 724 signal;
#X obj 181 453 +~ 0;
#X obj 181 479 +~;
#X obj 308 508 osc_select~;
#X obj 308 707 outlet~;
#X obj 308 414 * 1;
#X obj 308 652 *~;
#X obj 308 373 unpack f f;
#X obj 308 607 *~;
#X obj 323 544 loadbang;
#X msg 323 572 1;
#X text 309 724 signal;
#X obj 308 453 +~ 0;
#X obj 308 479 +~;
#X obj 437 508 osc_select~;
#X obj 437 707 outlet~;
#X obj 437 414 * 1;
#X obj 437 652 *~;
#X obj 437 373 unpack f f;
#X obj 437 607 *~;
#X obj 452 544 loadbang;
#X msg 452 572 1;
#X text 438 724 signal;
#X obj 437 453 +~ 0;
#X obj 437 479 +~;
#X obj 565 508 osc_select~;
#X obj 565 707 outlet~;
#X obj 565 414 * 1;
#X obj 565 652 *~;
#X obj 565 373 unpack f f;
#X obj 565 607 *~;
#X obj 580 544 loadbang;
#X msg 580 572 1;
#X text 566 724 signal;
#X obj 565 453 +~ 0;
#X obj 565 479 +~;
#X obj 692 508 osc_select~;
#X obj 692 707 outlet~;
#X obj 692 414 * 1;
#X obj 692 652 *~;
#X obj 692 373 unpack f f;
#X obj 692 607 *~;
#X obj 707 544 loadbang;
#X msg 707 572 1;
#X text 693 724 signal;
#X obj 692 453 +~ 0;
#X obj 692 479 +~;
#X obj 819 508 osc_select~;
#X obj 819 707 outlet~;
#X obj 819 414 * 1;
#X obj 819 652 *~;
#X obj 819 373 unpack f f;
#X obj 819 607 *~;
#X obj 834 544 loadbang;
#X msg 834 572 1;
#X obj 876 707 outlet;
#X text 820 724 signal;
#X text 885 724 vel;
#X obj 819 453 +~ 0;
#X obj 819 479 +~;
#X text 884 413 Tune;
#X text 880 453 Pitch Env;
#X text 881 478 Pitch LFO;
#X text 883 609 Amp LFO;
#X text 883 656 Vol;
#X text 235 62 OSC Bank;
#X obj -273 707 outlet;
#X text -264 724 vel;
#X obj -144 707 outlet;
#X text -135 724 vel;
#X obj -16 707 outlet;
#X text -7 724 vel;
#X obj 111 707 outlet;
#X text 120 724 vel;
#X obj 238 707 outlet;
#X text 247 724 vel;
#X obj 365 707 outlet;
#X text 374 724 vel;
#X obj 494 707 outlet;
#X text 503 724 vel;
#X obj 622 707 outlet;
#X text 631 724 vel;
#X obj 749 707 outlet;
#X text 758 724 vel;
#X connect 2 0 3 0;
#X connect 2 0 16 0;
#X connect 4 0 30 0;
#X connect 6 0 5 0;
#X connect 6 0 4 1;
#X connect 6 0 38 1;
#X connect 6 0 49 1;
#X connect 6 0 60 1;
#X connect 6 0 71 1;
#X connect 6 0 82 1;
#X connect 6 0 93 1;
#X connect 6 0 104 1;
#X connect 6 0 115 1;
#X connect 6 0 126 1;
#X connect 12 0 21 0;
#X connect 14 0 20 1;
#X connect 14 0 40 1;
#X connect 14 0 51 1;
#X connect 14 0 62 1;
#X connect 14 0 73 1;
#X connect 14 0 84 1;
#X connect 14 0 95 1;
#X connect 14 0 106 1;
#X connect 14 0 117 1;
#X connect 14 0 128 1;
#X connect 16 0 14 0;
#X connect 16 0 12 0;
#X connect 18 0 19 0;
#X connect 19 0 28 0;
#X connect 19 1 42 0;
#X connect 19 2 53 0;
#X connect 19 3 64 0;
#X connect 19 4 75 0;
#X connect 19 5 86 0;
#X connect 19 6 97 0;
#X connect 19 7 108 0;
#X connect 19 8 119 0;
#X connect 19 9 130 0;
#X connect 20 0 36 0;
#X connect 21 0 22 0;
#X connect 22 0 23 1;
#X connect 22 0 41 1;
#X connect 22 0 52 1;
#X connect 22 0 63 1;
#X connect 22 0 74 1;
#X connect 22 0 85 1;
#X connect 22 0 96 1;
#X connect 22 0 107 1;
#X connect 22 0 118 1;
#X connect 22 0 129 1;
#X connect 23 0 17 0;
#X connect 26 0 36 1;
#X connect 26 0 47 1;
#X connect 26 0 58 1;
#X connect 26 0 69 1;
#X connect 26 0 80 1;
#X connect 26 0 91 1;
#X connect 26 0 102 1;
#X connect 26 0 113 1;
#X connect 26 0 124 1;
#X connect 26 0 137 1;
#X connect 28 0 20 0;
#X connect 28 1 145 0;
#X connect 30 0 23 0;
#X connect 31 0 32 0;
#X connect 32 0 30 1;
#X connect 34 0 30 1;
#X connect 34 0 43 1;
#X connect 34 0 54 1;
#X connect 34 0 65 1;
#X connect 34 0 76 1;
#X connect 34 0 87 1;
#X connect 34 0 98 1;
#X connect 34 0 109 1;
#X connect 34 0 120 1;
#X connect 34 0 131 1;
#X connect 35 0 37 1;
#X connect 35 0 48 1;
#X connect 35 0 59 1;
#X connect 35 0 70 1;
#X connect 35 0 81 1;
#X connect 35 0 92 1;
#X connect 35 0 103 1;
#X connect 35 0 114 1;
#X connect 35 0 125 1;
#X connect 35 0 138 1;
#X connect 36 0 37 0;
#X connect 37 0 4 0;
#X connect 38 0 43 0;
#X connect 40 0 47 0;
#X connect 41 0 39 0;
#X connect 42 0 40 0;
#X connect 42 1 147 0;
#X connect 43 0 41 0;
#X connect 44 0 45 0;
#X connect 45 0 43 1;
#X connect 47 0 48 0;
#X connect 48 0 38 0;
#X connect 49 0 54 0;
#X connect 51 0 58 0;
#X connect 52 0 50 0;
#X connect 53 0 51 0;
#X connect 53 1 149 0;
#X connect 54 0 52 0;
#X connect 55 0 56 0;
#X connect 56 0 54 1;
#X connect 58 0 59 0;
#X connect 59 0 49 0;
#X connect 60 0 65 0;
#X connect 62 0 69 0;
#X connect 63 0 61 0;
#X connect 64 0 62 0;
#X connect 64 1 151 0;
#X connect 65 0 63 0;
#X connect 66 0 67 0;
#X connect 67 0 65 1;
#X connect 69 0 70 0;
#X connect 70 0 60 0;
#X connect 71 0 76 0;
#X connect 73 0 80 0;
#X connect 74 0 72 0;
#X connect 75 0 73 0;
#X connect 75 1 153 0;
#X connect 76 0 74 0;
#X connect 77 0 78 0;
#X connect 78 0 76 1;
#X connect 80 0 81 0;
#X connect 81 0 71 0;
#X connect 82 0 87 0;
#X connect 84 0 91 0;
#X connect 85 0 83 0;
#X connect 86 0 84 0;
#X connect 86 1 155 0;
#X connect 87 0 85 0;
#X connect 88 0 89 0;
#X connect 89 0 87 1;
#X connect 91 0 92 0;
#X connect 92 0 82 0;
#X connect 93 0 98 0;
#X connect 95 0 102 0;
#X connect 96 0 94 0;
#X connect 97 0 95 0;
#X connect 97 1 157 0;
#X connect 98 0 96 0;
#X connect 99 0 100 0;
#X connect 100 0 98 1;
#X connect 102 0 103 0;
#X connect 103 0 93 0;
#X connect 104 0 109 0;
#X connect 106 0 113 0;
#X connect 107 0 105 0;
#X connect 108 0 106 0;
#X connect 108 1 159 0;
#X connect 109 0 107 0;
#X connect 110 0 111 0;
#X connect 111 0 109 1;
#X connect 113 0 114 0;
#X connect 114 0 104 0;
#X connect 115 0 120 0;
#X connect 117 0 124 0;
#X connect 118 0 116 0;
#X connect 119 0 117 0;
#X connect 119 1 161 0;
#X connect 120 0 118 0;
#X connect 121 0 122 0;
#X connect 122 0 120 1;
#X connect 124 0 125 0;
#X connect 125 0 115 0;
#X connect 126 0 131 0;
#X connect 128 0 137 0;
#X connect 129 0 127 0;
#X connect 130 0 128 0;
#X connect 130 1 134 0;
#X connect 131 0 129 0;
#X connect 132 0 133 0;
#X connect 133 0 131 1;
#X connect 137 0 138 0;
#X connect 138 0 126 0;
#X coords 0 -1 1 1 273 156 2 128 60;
