#N canvas 719 104 561 462 10;
#X obj 129 93 cnv 15 130 161 empty empty empty 20 12 0 14 -233017 -66577
0;
#X obj 129 93 cnv 15 131 15 empty empty empty 20 12 0 14 -137314 -66577
0;
#X obj 54 311 inlet~;
#X obj 98 311 inlet~;
#X obj 142 311 inlet~;
#X obj 186 311 inlet~;
#X obj 230 311 inlet~;
#X obj 274 311 inlet~;
#X obj 318 311 inlet~;
#X obj 362 311 inlet~;
#X obj 406 311 inlet~;
#X obj 450 311 inlet~;
#X obj 264 372 +~;
#X obj 264 395 /~ 10;
#X obj 264 438 outlet~;
#X text 176 92 Output;
#X obj 150 127 vsl 12 100 0 1 0 0 empty empty empty 0 -9 0 10 -212212
-1 -1 9900 1;
#X text 167 127 Vol;
#X obj 283 172 pack 0 50;
#X obj 283 207 line~;
#X obj 264 416 *~;
#X obj 308 63 pvu~;
#X obj 208 127 vu 15 120 empty empty -1 -8 0 10 -66577 -1 1 0;
#X connect 2 0 12 0;
#X connect 3 0 12 0;
#X connect 4 0 12 0;
#X connect 5 0 12 0;
#X connect 6 0 12 0;
#X connect 7 0 12 1;
#X connect 8 0 12 1;
#X connect 9 0 12 1;
#X connect 10 0 12 1;
#X connect 11 0 12 1;
#X connect 12 0 13 0;
#X connect 13 0 20 0;
#X connect 16 0 18 0;
#X connect 18 0 19 0;
#X connect 19 0 20 1;
#X connect 20 0 14 0;
#X connect 20 0 21 0;
#X connect 21 0 22 0;
#X connect 21 1 22 1;
#X coords 0 -1 1 1 133 167 1 128 90;
