#N canvas 134 221 838 530 10;
#X obj 101 103 cnv 15 312 102 empty empty empty 20 12 0 14 -191407
-66577 0;
#X obj 103 105 cnv 15 308 98 empty empty empty 20 12 0 14 -228856 -66577
0;
#X obj 106 116 tgl 15 0 empty empty empty 17 7 0 10 -171370 -1 -1 1
1;
#X obj 26 168 + 1;
#X obj 45 143 mod 16;
#X obj 7 143 f;
#X obj 106 163 hradio 18 1 0 16 empty empty empty 0 -8 0 10 -262144
-1 -1 5;
#X obj 134 31 bng 15 250 50 0 empty empty empty 17 7 0 10 -262144 -1
-1;
#X obj 159 52 loadbang;
#X msg 159 78 200;
#X obj 7 117 metro 200;
#X obj 449 142 select 0 1 2 3 4 5 6 7 8 9 10 11 12 13 14 15;
#X obj 303 105 cnv 15 108 17 empty empty empty 20 12 0 14 -245565 -66577
0;
#X obj 305 105 cnv 15 106 15 empty empty empty 20 12 0 14 -232576 -66577
0;
#X obj 108 -59 inlet;
#X obj 292 -59 inlet;
#X floatatom 142 145 5 0 0 0 - - -, f 5;
#X floatatom 178 145 5 0 0 0 - - -, f 5;
#X floatatom 214 145 5 0 0 0 - - -, f 5;
#X floatatom 250 145 5 0 0 0 - - -, f 5;
#X floatatom 286 145 5 0 0 0 - - -, f 5;
#X floatatom 322 145 5 0 0 0 - - -, f 5;
#X floatatom 358 145 5 0 0 0 - - -, f 5;
#X floatatom 124 183 5 0 0 0 - - -, f 5;
#X floatatom 160 183 5 0 0 0 - - -, f 5;
#X floatatom 196 183 5 0 0 0 - - -, f 5;
#X floatatom 232 183 5 0 0 0 - - -, f 5;
#X floatatom 268 183 5 0 0 0 - - -, f 5;
#X floatatom 304 183 5 0 0 0 - - -, f 5;
#X floatatom 340 183 5 0 0 0 - - -, f 5;
#X floatatom 376 183 5 0 0 0 - - -, f 5;
#X floatatom 106 144 5 0 0 0 - - -, f 5;
#X obj 459 299 moses 0;
#X obj 485 409 outlet;
#X text 668 6 negative number = rest;
#X obj 275 116 tgl 15 0 empty empty empty 17 7 0 10 -228012 -1 -1 1
1;
#X obj 518 333 spigot;
#X obj 518 360 mtof;
#X floatatom 582 320 5 0 0 0 - - -, f 5;
#X obj 518 87 - 1;
#X obj 518 121 * -1;
#X floatatom 518 302 5 0 0 0 - - -, f 5;
#X obj 465 332 spigot;
#X obj 576 247 loadbang;
#X msg 528 273 1;
#X text 620 318 activates midi input;
#X text 555 299 activates frequency input;
#X obj 122 116 cnv 15 38 15 empty empty empty 20 12 0 14 -204786 -66577
0;
#X text 122 115 On/Off;
#X obj 246 116 cnv 15 28 15 empty empty empty 20 12 0 14 -261234 -66577
0;
#X text 248 115 MIDI;
#X obj 396 -18 loadbang;
#X msg 396 6 -1;
#X obj 752 390 outlet;
#X obj 752 298 bng 15 250 50 0 empty empty empty 17 7 0 10 -262144
-1 -1;
#X obj 485 385 pack f 127;
#X obj 162 -59 inlet;
#X obj 161 -25 unpack f f f f f f f f f f f f f f f f;
#X obj 6 268 spigot;
#X obj 24 298 spigot;
#X obj 56 268 spigot;
#X obj 74 298 spigot;
#X obj 106 268 spigot;
#X obj 124 298 spigot;
#X obj 156 268 spigot;
#X obj 174 298 spigot;
#X obj 206 268 spigot;
#X obj 224 298 spigot;
#X obj 256 268 spigot;
#X obj 274 298 spigot;
#X obj 306 268 spigot;
#X obj 324 298 spigot;
#X obj 356 268 spigot;
#X obj 374 298 spigot;
#X msg 449 182 1;
#X msg 465 172 1;
#X msg 481 182 1;
#X msg 497 172 1;
#X msg 514 182 1;
#X msg 530 172 1;
#X msg 546 182 1;
#X msg 563 172 1;
#X msg 579 182 1;
#X msg 595 172 1;
#X msg 612 182 1;
#X msg 628 172 1;
#X msg 644 182 1;
#X msg 661 172 1;
#X msg 677 182 1;
#X msg 693 172 1;
#X obj 517 6 metro 10;
#X msg 61 363 0;
#X msg 77 353 0;
#X msg 93 363 0;
#X msg 109 353 0;
#X msg 126 363 0;
#X msg 142 353 0;
#X msg 158 363 0;
#X msg 175 353 0;
#X msg 191 363 0;
#X msg 207 353 0;
#X msg 224 363 0;
#X msg 240 353 0;
#X msg 256 363 0;
#X msg 273 353 0;
#X msg 289 363 0;
#X msg 305 353 0;
#X floatatom 305 104 2 2 16 0 - - -, f 2;
#X msg 329 15 16;
#X text 322 104 Step Sequencer;
#X text 666 100 adjust trigger for linker;
#X obj 752 155 select 15;
#X obj 803 118 - 1;
#X obj 393 126 tgl 15 0 empty empty empty 17 7 0 10 -128992 -1 -1 0
1;
#X obj 703 237 spigot;
#X obj 752 207 delay 200;
#X obj 332 126 cnv 15 60 15 empty empty empty 20 12 0 14 -191407 -66577
0;
#X obj 178 105 cnv 15 50 35 empty empty empty 20 12 0 14 -191407 -66577
0;
#X text 186 102 Tempo;
#X floatatom 187 120 5 0 0 0 - - -, f 5;
#X text 200 -59 notes in msg;
#X text 331 -59 tempo;
#X obj 382 -59 inlet;
#X text 420 -58 MIDI mode;
#X obj 487 -59 inlet;
#X text 525 -58 Step number;
#X obj 606 -59 inlet;
#X text 644 -58 Link mode;
#X obj 36 27 moses 1;
#X msg 34 62 0;
#X text 23 12 resets when off;
#X text 705 406 for triggering links;
#X text 341 125 No Loop;
#X msg 443 5 1;
#X connect 2 0 7 0;
#X connect 2 0 10 0;
#X connect 2 0 128 0;
#X connect 3 0 4 0;
#X connect 4 0 5 1;
#X connect 5 0 3 0;
#X connect 5 0 6 0;
#X connect 6 0 11 0;
#X connect 6 0 111 0;
#X connect 7 0 119 0;
#X connect 8 0 9 0;
#X connect 9 0 119 0;
#X connect 10 0 5 0;
#X connect 11 0 74 0;
#X connect 11 1 75 0;
#X connect 11 2 76 0;
#X connect 11 3 77 0;
#X connect 11 4 78 0;
#X connect 11 5 79 0;
#X connect 11 6 80 0;
#X connect 11 7 81 0;
#X connect 11 8 82 0;
#X connect 11 9 83 0;
#X connect 11 10 84 0;
#X connect 11 11 85 0;
#X connect 11 12 86 0;
#X connect 11 13 87 0;
#X connect 11 14 88 0;
#X connect 11 15 89 0;
#X connect 14 0 2 0;
#X connect 15 0 119 0;
#X connect 16 0 60 0;
#X connect 17 0 62 0;
#X connect 18 0 64 0;
#X connect 19 0 66 0;
#X connect 20 0 68 0;
#X connect 21 0 70 0;
#X connect 22 0 72 0;
#X connect 23 0 59 0;
#X connect 24 0 61 0;
#X connect 25 0 63 0;
#X connect 26 0 65 0;
#X connect 27 0 67 0;
#X connect 28 0 69 0;
#X connect 29 0 71 0;
#X connect 30 0 73 0;
#X connect 31 0 58 0;
#X connect 32 1 36 0;
#X connect 32 1 42 0;
#X connect 35 0 38 0;
#X connect 35 0 39 0;
#X connect 36 0 37 0;
#X connect 37 0 55 0;
#X connect 38 0 36 1;
#X connect 39 0 40 0;
#X connect 40 0 41 0;
#X connect 41 0 42 1;
#X connect 42 0 55 0;
#X connect 43 0 44 0;
#X connect 44 0 41 0;
#X connect 51 0 52 0;
#X connect 51 0 90 0;
#X connect 51 0 108 0;
#X connect 51 0 133 0;
#X connect 52 0 31 0;
#X connect 52 0 16 0;
#X connect 52 0 17 0;
#X connect 52 0 18 0;
#X connect 52 0 19 0;
#X connect 52 0 20 0;
#X connect 52 0 21 0;
#X connect 52 0 22 0;
#X connect 52 0 23 0;
#X connect 52 0 24 0;
#X connect 52 0 25 0;
#X connect 52 0 26 0;
#X connect 52 0 27 0;
#X connect 52 0 28 0;
#X connect 52 0 29 0;
#X connect 52 0 30 0;
#X connect 54 0 53 0;
#X connect 55 0 33 0;
#X connect 56 0 57 0;
#X connect 57 0 31 0;
#X connect 57 1 23 0;
#X connect 57 2 16 0;
#X connect 57 3 24 0;
#X connect 57 4 17 0;
#X connect 57 5 25 0;
#X connect 57 6 18 0;
#X connect 57 7 26 0;
#X connect 57 8 19 0;
#X connect 57 9 27 0;
#X connect 57 10 20 0;
#X connect 57 11 28 0;
#X connect 57 12 21 0;
#X connect 57 13 29 0;
#X connect 57 14 22 0;
#X connect 57 15 30 0;
#X connect 58 0 32 0;
#X connect 58 0 91 0;
#X connect 59 0 32 0;
#X connect 59 0 92 0;
#X connect 60 0 32 0;
#X connect 60 0 93 0;
#X connect 61 0 32 0;
#X connect 61 0 94 0;
#X connect 62 0 32 0;
#X connect 62 0 95 0;
#X connect 63 0 32 0;
#X connect 63 0 96 0;
#X connect 64 0 32 0;
#X connect 64 0 97 0;
#X connect 65 0 32 0;
#X connect 65 0 98 0;
#X connect 66 0 32 0;
#X connect 66 0 99 0;
#X connect 67 0 32 0;
#X connect 67 0 100 0;
#X connect 68 0 32 0;
#X connect 68 0 101 0;
#X connect 69 0 32 0;
#X connect 69 0 102 0;
#X connect 70 0 32 0;
#X connect 70 0 103 0;
#X connect 71 0 32 0;
#X connect 71 0 104 0;
#X connect 72 0 32 0;
#X connect 72 0 105 0;
#X connect 73 0 32 0;
#X connect 73 0 106 0;
#X connect 74 0 58 1;
#X connect 75 0 59 1;
#X connect 76 0 60 1;
#X connect 77 0 61 1;
#X connect 78 0 62 1;
#X connect 79 0 63 1;
#X connect 80 0 64 1;
#X connect 81 0 65 1;
#X connect 82 0 66 1;
#X connect 83 0 67 1;
#X connect 84 0 68 1;
#X connect 85 0 69 1;
#X connect 86 0 70 1;
#X connect 87 0 71 1;
#X connect 88 0 72 1;
#X connect 89 0 73 1;
#X connect 90 0 31 0;
#X connect 90 0 23 0;
#X connect 90 0 16 0;
#X connect 90 0 24 0;
#X connect 90 0 17 0;
#X connect 90 0 25 0;
#X connect 90 0 18 0;
#X connect 90 0 26 0;
#X connect 90 0 19 0;
#X connect 90 0 27 0;
#X connect 90 0 20 0;
#X connect 90 0 28 0;
#X connect 90 0 21 0;
#X connect 90 0 29 0;
#X connect 90 0 22 0;
#X connect 90 0 30 0;
#X connect 91 0 58 1;
#X connect 92 0 59 1;
#X connect 93 0 60 1;
#X connect 94 0 61 1;
#X connect 95 0 62 1;
#X connect 96 0 63 1;
#X connect 97 0 64 1;
#X connect 98 0 65 1;
#X connect 99 0 66 1;
#X connect 100 0 67 1;
#X connect 101 0 68 1;
#X connect 102 0 69 1;
#X connect 103 0 70 1;
#X connect 104 0 71 1;
#X connect 105 0 72 1;
#X connect 106 0 73 1;
#X connect 107 0 4 1;
#X connect 107 0 112 0;
#X connect 108 0 107 0;
#X connect 111 0 115 0;
#X connect 112 0 111 1;
#X connect 113 0 114 1;
#X connect 114 0 2 0;
#X connect 115 0 54 0;
#X connect 115 0 114 0;
#X connect 119 0 10 1;
#X connect 119 0 115 1;
#X connect 122 0 35 0;
#X connect 124 0 107 0;
#X connect 126 0 113 0;
#X connect 128 0 129 0;
#X connect 129 0 5 1;
#X connect 133 0 35 0;
#X coords 0 -1 1 1 314 108 1 100 100;
