#N canvas 60 23 1101 699 10;
#X obj 768 677 dac~;
#X obj 164 120 osc_bank~;
#X obj 164 389 env_amp_bank~;
#X obj 444 389 env_filt_bank~;
#X obj 444 120 osc_bank~;
#X obj 164 286 comb~;
#X obj 303 546 filter_bank~;
#X obj 608 547 output~;
#X obj 164 32 ctrl;
#X obj 9 120 lfo~;
#X obj 9 353 lfo~;
#X obj 724 120 seq_var;
#X msg 785 69 34 34 -1 34 34 -1 34;
#X obj 382 21 notein_pack;
#X text 463 21 Connect this atom to Control for MIDI input;
#X text 724 230 Connect left outlet of this atom to Control for sequencer
input;
#X connect 1 0 5 0;
#X connect 1 1 5 1;
#X connect 1 2 5 2;
#X connect 1 3 5 3;
#X connect 1 4 5 4;
#X connect 1 5 5 5;
#X connect 1 6 5 6;
#X connect 1 7 5 7;
#X connect 1 8 5 8;
#X connect 1 9 5 9;
#X connect 1 10 5 10;
#X connect 1 11 5 11;
#X connect 1 12 5 12;
#X connect 1 13 5 13;
#X connect 1 14 5 14;
#X connect 1 15 5 15;
#X connect 1 16 5 16;
#X connect 1 17 5 17;
#X connect 1 18 5 18;
#X connect 1 19 5 19;
#X connect 2 0 6 0;
#X connect 2 1 6 2;
#X connect 2 2 6 4;
#X connect 2 3 6 6;
#X connect 2 4 6 8;
#X connect 2 5 6 10;
#X connect 2 6 6 12;
#X connect 2 7 6 14;
#X connect 2 8 6 16;
#X connect 2 9 6 18;
#X connect 3 0 6 1;
#X connect 3 1 6 3;
#X connect 3 2 6 5;
#X connect 3 3 6 7;
#X connect 3 4 6 9;
#X connect 3 5 6 11;
#X connect 3 6 6 13;
#X connect 3 7 6 15;
#X connect 3 8 6 17;
#X connect 3 9 6 19;
#X connect 4 0 5 20;
#X connect 4 1 5 21;
#X connect 4 2 5 22;
#X connect 4 3 5 23;
#X connect 4 4 5 24;
#X connect 4 5 5 25;
#X connect 4 6 5 26;
#X connect 4 7 5 27;
#X connect 4 8 5 28;
#X connect 4 9 5 29;
#X connect 4 10 5 30;
#X connect 4 11 5 31;
#X connect 4 12 5 32;
#X connect 4 13 5 33;
#X connect 4 14 5 34;
#X connect 4 15 5 35;
#X connect 4 16 5 36;
#X connect 4 17 5 37;
#X connect 4 18 5 38;
#X connect 4 19 5 39;
#X connect 5 0 2 0;
#X connect 5 1 2 1;
#X connect 5 1 3 0;
#X connect 5 2 2 2;
#X connect 5 3 2 3;
#X connect 5 3 3 1;
#X connect 5 4 2 4;
#X connect 5 5 2 5;
#X connect 5 5 3 2;
#X connect 5 6 2 6;
#X connect 5 7 2 7;
#X connect 5 7 3 3;
#X connect 5 8 2 8;
#X connect 5 9 2 9;
#X connect 5 9 3 4;
#X connect 5 10 2 10;
#X connect 5 11 2 11;
#X connect 5 11 3 5;
#X connect 5 12 2 12;
#X connect 5 13 2 13;
#X connect 5 13 3 6;
#X connect 5 14 2 14;
#X connect 5 15 2 15;
#X connect 5 15 3 7;
#X connect 5 16 2 16;
#X connect 5 17 2 17;
#X connect 5 17 3 8;
#X connect 5 18 2 18;
#X connect 5 19 2 19;
#X connect 5 19 3 9;
#X connect 6 0 7 0;
#X connect 6 1 7 1;
#X connect 6 2 7 2;
#X connect 6 3 7 3;
#X connect 6 4 7 4;
#X connect 6 5 7 5;
#X connect 6 6 7 6;
#X connect 6 7 7 7;
#X connect 6 8 7 8;
#X connect 6 9 7 9;
#X connect 7 0 0 0;
#X connect 7 0 0 1;
#X connect 8 0 1 0;
#X connect 8 0 4 0;
#X connect 9 0 1 1;
#X connect 9 1 6 20;
#X connect 9 2 1 2;
#X connect 10 0 4 1;
#X connect 10 2 4 2;
#X connect 12 0 11 1;
#X connect 13 0 8 0;
